# Rhino

mtllib MC2_2N.mtl
o MC2_2N
usemtl diffuse_40_50_255_255
v 56 0 6
v 56 2 8
v 60 0 6
v 60 2 8
v 56 0 8
v 56 2 8
v 56 0 6
v 56 2 8
v 60 0 8
v 60 2 8
v 60 0 6
v 60 2 8
v 56 0 8
v 60 0 8
v 56 2 8
v 60 2 8
v 56 0 8
v 60 0 8
v 56 0 6
v 60 0 6
vt 0 0
vt 0 0.41274872422218323
vt 0.58578646183013916 0
vt 0.58578646183013916 0.41274872422218323
vt 0.41274872422218323 0.70710676908493042
vt 0 0.70710676908493042
vt 0.41274872422218323 0.99853515625
vt 0 0.99853515625
vt 0.41274872422218323 0.41421356797218323
vt 0 0.41421356797218323
vt 0.41274872422218323 0.70564192533493042
vt 0 0.70564192533493042
vt 0.70710676908493042 0
vt 0.70710676908493042 0.58578646183013916
vt 0.99853515625 0
vt 0.99853515625 0.58578646183013916
vt 0.41421356797218323 0.41421356797218323
vt 0.41421356797218323 0.99853515625
vt 0.70564192533493042 0.41421356797218323
vt 0.70564192533493042 0.99853515625
vn 0 0.70710676908493042 -0.70710676908493042
vn 0 0.70710676908493042 -0.70710676908493042
vn 0 0.70710676908493042 -0.70710676908493042
vn 0 0.70710676908493042 -0.70710676908493042
vn -1 0 0
vn -1 0 0
vn -1 0 0
vn -1 0 0
vn 1 0 0
vn 1 0 0
vn 1 0 0
vn 1 0 0
vn 0 0 1
vn 0 0 1
vn 0 0 1
vn 0 0 1
vn 0 -1 0
vn 0 -1 0
vn 0 -1 0
vn 0 -1 0
f 2/2/2 4/4/4 3/3/3 1/1/1
f 6/6/6 7/7/7 5/5/5
f 10/10/10 9/9/9 11/11/11
f 14/14/14 16/16/16 15/15/15 13/13/13
f 18/18/18 17/17/17 19/19/19 20/20/20
