# Rhino

mtllib MC2_1.mtl
o MC2_1
usemtl diffuse_0_255_50_255
v 16 4 -2
v 16 2 0
v 18 4 0
v 16 2 0
v 16 0 -2
v 16 2 -4
v 18 0 -4
v 16 2 -4
v 16 4 -2
v 16 2 0
v 16 0 -2
v 16 2 -4
v 16 0 0
v 16 4 -4
v 20 0 0
v 20 4 0
v 20 0 -4
v 20 4 -4
v 16 2 0
v 18 4 0
v 16 0 0
v 20 4 0
v 20 0 0
v 18 0 -4
v 16 2 -4
v 16 4 -4
v 20 4 -4
v 20 0 -4
v 16 0 -2
v 18 0 -4
v 16 0 0
v 20 0 -4
v 20 0 0
v 18 4 0
v 16 4 -2
v 16 4 -4
v 20 4 -4
v 20 4 0
vt 0.66666668653488159 0
vt 0.66666668653488159 0.22961580753326416
vt 0.89774733781814575 0
vt 0.89774733781814575 0.22961580753326416
vt 0.3333333432674408 0
vt 0.3333333432674408 0.22961580753326416
vt 0.56441396474838257 0
vt 0.56441396474838257 0.22961580753326416
vt 0.0032536224462091923 0.61109602451324463
vt 0.1659342497587204 0.44769734144210815
vt 0.32861489057540894 0.61109602451324463
vt 0.1659342497587204 0.7744947075843811
vt 0.32861489057540894 0.44769734144210815
vt 0.0032536224462091923 0.7744947075843811
vt 0.32679739594459534 0
vt 0 0
vt 0.32679739594459534 0.32679739594459534
vt 0 0.32679739594459534
vt 0.66992026567459106 0.39701488614082336
vt 0.83260089159011841 0.23433426022529602
vt 0.66992026567459106 0.5596955418586731
vt 0.99528151750564575 0.23433426022529602
vt 0.99528151750564575 0.5596955418586731
vt 0.499267578125 0.5596955418586731
vt 0.33658695220947266 0.39701488614082336
vt 0.33658695220947266 0.23433426022529602
vt 0.66194820404052734 0.23433426022529602
vt 0.66194820404052734 0.5596955418586731
vt 0.66992026567459106 0.73034822940826416
vt 0.83260089159011841 0.56766760349273682
vt 0.66992026567459106 0.8930288553237915
vt 0.99528151750564575 0.56766760349273682
vt 0.99528151750564575 0.8930288553237915
vt 0.499267578125 0.8930288553237915
vt 0.33658695220947266 0.73034822940826416
vt 0.33658695220947266 0.56766760349273682
vt 0.66194820404052734 0.56766760349273682
vt 0.66194820404052734 0.8930288553237915
vn -0.57735025882720947 0.57735025882720947 0.57735025882720947
vn -0.57735025882720947 0.57735025882720947 0.57735025882720947
vn -0.57735025882720947 0.57735025882720947 0.57735025882720947
vn -0.57735025882720947 0.57735025882720947 0.57735025882720947
vn -0.57735025882720947 -0.57735025882720947 -0.57735025882720947
vn -0.57735025882720947 -0.57735025882720947 -0.57735025882720947
vn -0.57735025882720947 -0.57735025882720947 -0.57735025882720947
vn -0.57735025882720947 -0.57735025882720947 -0.57735025882720947
vn -1 0 0
vn -1 0 0
vn -1 0 0
vn -1 0 0
vn -1 0 0
vn -1 0 0
vn 1 0 0
vn 1 0 0
vn 1 0 0
vn 1 0 0
vn 0 0 1
vn 0 0 1
vn 0 0 1
vn 0 0 1
vn 0 0 1
vn 0 0 -1
vn 0 0 -1
vn 0 0 -1
vn 0 0 -1
vn 0 0 -1
vn 0 -1 0
vn 0 -1 0
vn 0 -1 0
vn 0 -1 0
vn 0 -1 0
vn 0 1 0
vn 0 1 0
vn 0 1 0
vn 0 1 0
vn 0 1 0
f 2/2/2 3/3/3 1/1/1
f 6/6/6 7/7/7 5/5/5
f 10/10/10 11/11/11 13/13/13
f 12/12/12 11/11/11 10/10/10
f 14/14/14 12/12/12 9/9/9
f 10/10/10 9/9/9 12/12/12
f 16/16/16 15/15/15 17/17/17 18/18/18
f 23/23/23 19/19/19 21/21/21
f 23/23/23 22/22/22 20/20/20
f 19/19/19 23/23/23 20/20/20
f 27/27/27 25/25/25 26/26/26
f 28/28/28 24/24/24 27/27/27
f 25/25/25 27/27/27 24/24/24
f 33/33/33 31/31/31 29/29/29
f 33/33/33 30/30/30 32/32/32
f 29/29/29 30/30/30 33/33/33
f 37/37/37 36/36/36 35/35/35
f 38/38/38 37/37/37 34/34/34
f 35/35/35 34/34/34 37/37/37
