# Rhino

mtllib MC3_4.mtl
o MC3_4
usemtl diffuse_120_255_100_255
v 24 2 20
v 28 2 24
v 28 2 20
v 28 2 24
v 24 0 22
v 26 0 24
v 24 2 20
v 28 2 24
v 24 0 22
v 24 2 20
v 24 0 24
v 24 4 24
v 24 4 20
v 28 4 20
v 28 2 20
v 28 4 24
v 28 2 24
v 28 2 24
v 26 0 24
v 24 0 24
v 24 4 24
v 28 4 24
v 28 4 20
v 24 4 20
v 28 2 20
v 24 2 20
v 24 0 24
v 26 0 24
v 24 0 22
v 26 0 24
v 28 4 20
v 24 4 20
v 28 4 24
v 24 4 24
vt 0.90304219722747803 0.63214516639709473
vt 0.46481263637542725 0.63214516639709473
vt 0.90304219722747803 0.94055545330047607
vt 0.46481263637542725 0.94055545330047607
vt 0.46481263637542725 0
vt 0.46481263637542725 0.43822956085205078
vt 0.68246257305145264 0
vt 0.68246257305145264 0.43822956085205078
vt 0.99545079469680786 0.15730386972427368
vt 0.84123128652572632 0.31152334809303284
vt 0.99545079469680786 0.0030843897257000208
vt 0.68701183795928955 0.0030843897257000208
vt 0.68701183795928955 0.31152334809303284
vt 0.15347270667552948 0.47101014852523804
vt 0 0.47101014852523804
vt 0.15347270667552948 0.78088521957397461
vt 0 0.78088521957397461
vt 0.84123128652572632 0.62759596109390259
vt 0.68701183795928955 0.47337645292282104
vt 0.68701183795928955 0.31915697455406189
vt 0.99545079469680786 0.31915697455406189
vt 0.99545079469680786 0.62759596109390259
vt 0.30987510085105896 0.23550507426261902
vt 0 0.23550507426261902
vt 0.30987510085105896 0.3904426097869873
vt 0 0.3904426097869873
vt 0.21911478042602539 0
vt 0 0
vt 0.21911478042602539 0.15493755042552948
vt 0 0.15493755042552948
vt 0.15493755042552948 0.47101014852523804
vt 0.15493755042552948 0.78088521957397461
vt 0.46334779262542725 0.47101014852523804
vt 0.46334779262542725 0.78088521957397461
vn 0 -1 0
vn 0 -1 0
vn 0 -1 0
vn 0 -1 0
vn 0.57735025882720947 -0.57735025882720947 -0.57735025882720947
vn 0.57735025882720947 -0.57735025882720947 -0.57735025882720947
vn 0.57735025882720947 -0.57735025882720947 -0.57735025882720947
vn 0.57735025882720947 -0.57735025882720947 -0.57735025882720947
vn -1 0 0
vn -1 0 0
vn -1 0 0
vn -1 0 0
vn -1 0 0
vn 1 0 0
vn 1 0 0
vn 1 0 0
vn 1 0 0
vn 0 0 1
vn 0 0 1
vn 0 0 1
vn 0 0 1
vn 0 0 1
vn 0 0 -1
vn 0 0 -1
vn 0 0 -1
vn 0 0 -1
vn 0 -1 0
vn 0 -1 0
vn 0 -1 0
vn 0 -1 0
vn 0 1 0
vn 0 1 0
vn 0 1 0
vn 0 1 0
f 2/2/2 1/1/1 3/3/3
f 6/6/6 5/5/5 7/7/7 8/8/8
f 9/9/9 11/11/11 12/12/12
f 12/12/12 13/13/13 10/10/10
f 9/9/9 12/12/12 10/10/10
f 15/15/15 14/14/14 16/16/16 17/17/17
f 19/19/19 21/21/21 20/20/20
f 19/19/19 18/18/18 21/21/21
f 22/22/22 21/21/21 18/18/18
f 24/24/24 23/23/23 25/25/25 26/26/26
f 28/28/28 27/27/27 29/29/29
f 32/32/32 34/34/34 33/33/33 31/31/31
