# Rhino

mtllib MC3_3.mtl
o MC3_3
usemtl diffuse_80_255_100_255
v 24 0 14
v 26 0 16
v 24 2 16
v 26 0 16
v 24 2 12
v 24 4 14
v 26 4 12
v 24 4 14
v 26 4 16
v 28 2 16
v 28 4 14
v 28 2 16
v 24 2 16
v 24 0 14
v 24 2 12
v 24 4 14
v 24 0 12
v 24 4 16
v 28 4 14
v 28 2 16
v 28 0 12
v 28 4 12
v 28 0 16
v 26 0 16
v 24 2 16
v 26 4 16
v 28 2 16
v 24 4 16
v 28 0 16
v 24 2 12
v 26 4 12
v 24 0 12
v 28 4 12
v 28 0 12
v 26 0 16
v 24 0 14
v 24 0 12
v 28 0 12
v 28 0 16
v 24 4 14
v 26 4 12
v 28 4 14
v 26 4 16
v 24 4 16
v 28 4 12
vt 0.20470847189426422 0.40941694378852844
vt 0 0.40941694378852844
vt 0.20470847189426422 0.61412543058395386
vt 0 0.61412543058395386
vt 0.20470847189426422 0.20470847189426422
vt 0 0.20470847189426422
vt 0.20470847189426422 0.40795210003852844
vt 0 0.40795210003852844
vt 0.20470847189426422 0
vt 0 0
vt 0.20470847189426422 0.20324362814426422
vt 0 0.20324362814426422
vt 0.73749637603759766 0.50289499759674072
vt 0.88152909278869629 0.64764577150344849
vt 0.73749637603759766 0.79239648580551147
vt 0.5934637188911438 0.64764577150344849
vt 0.88152909278869629 0.79239648580551147
vt 0.5934637188911438 0.50289499759674072
vt 0.38944047689437866 0.29239651560783386
vt 0.24468971788883209 0.14764575660228729
vt 0.53419119119644165 0.0028950150590389967
vt 0.53419119119644165 0.29239651560783386
vt 0.24468971788883209 0.0028950150590389967
vt 0.29817217588424683 0.85162180662155151
vt 0.44220486283302307 0.70758914947509766
vt 0.58623754978179932 0.85162180662155151
vt 0.44220486283302307 0.99565452337265015
vt 0.58623754978179932 0.70758914947509766
vt 0.29817217588424683 0.99565452337265015
vt 0.44220486283302307 0.41229760646820068
vt 0.58623754978179932 0.55633026361465454
vt 0.29817217588424683 0.41229760646820068
vt 0.58623754978179932 0.70036298036575317
vt 0.29817217588424683 0.70036298036575317
vt 0.5934637188911438 0.14764575660228729
vt 0.73749637603759766 0.0028950150590389967
vt 0.88152909278869629 0.0028950150590389967
vt 0.88152909278869629 0.29239651560783386
vt 0.5934637188911438 0.29239651560783386
vt 0.14691333472728729 0.65410667657852173
vt 0.29094603657722473 0.79885739088058472
vt 0.14691333472728729 0.94360816478729248
vt 0.0028806624468415976 0.79885739088058472
vt 0.0028806624468415976 0.65410667657852173
vt 0.29094603657722473 0.94360816478729248
vn -0.57735025882720947 -0.57735025882720947 0.57735025882720947
vn -0.57735025882720947 -0.57735025882720947 0.57735025882720947
vn -0.57735025882720947 -0.57735025882720947 0.57735025882720947
vn -0.57735025882720947 -0.57735025882720947 0.57735025882720947
vn -0.57735025882720947 0.57735025882720947 -0.57735025882720947
vn -0.57735025882720947 0.57735025882720947 -0.57735025882720947
vn -0.57735025882720947 0.57735025882720947 -0.57735025882720947
vn -0.57735025882720947 0.57735025882720947 -0.57735025882720947
vn 0.57735025882720947 0.57735025882720947 0.57735025882720947
vn 0.57735025882720947 0.57735025882720947 0.57735025882720947
vn 0.57735025882720947 0.57735025882720947 0.57735025882720947
vn 0.57735025882720947 0.57735025882720947 0.57735025882720947
vn -1 0 0
vn -1 0 0
vn -1 0 0
vn -1 0 0
vn -1 0 0
vn -1 0 0
vn 1 0 0
vn 1 0 0
vn 1 0 0
vn 1 0 0
vn 1 0 0
vn 0 0 1
vn 0 0 1
vn 0 0 1
vn 0 0 1
vn 0 0 1
vn 0 0 1
vn 0 0 -1
vn 0 0 -1
vn 0 0 -1
vn 0 0 -1
vn 0 0 -1
vn 0 -1 0
vn 0 -1 0
vn 0 -1 0
vn 0 -1 0
vn 0 -1 0
vn 0 1 0
vn 0 1 0
vn 0 1 0
vn 0 1 0
vn 0 1 0
vn 0 1 0
f 2/2/2 3/3/3 1/1/1
f 6/6/6 7/7/7 5/5/5
f 10/10/10 11/11/11 9/9/9
f 16/16/16 13/13/13 18/18/18
f 14/14/14 13/13/13 16/16/16
f 16/16/16 15/15/15 14/14/14
f 17/17/17 14/14/14 15/15/15
f 21/21/21 20/20/20 23/23/23
f 22/22/22 19/19/19 21/21/21
f 20/20/20 21/21/21 19/19/19
f 25/25/25 26/26/26 28/28/28
f 27/27/27 26/26/26 25/25/25
f 29/29/29 27/27/27 24/24/24
f 25/25/25 24/24/24 27/27/27
f 34/34/34 32/32/32 30/30/30
f 34/34/34 31/31/31 33/33/33
f 30/30/30 31/31/31 34/34/34
f 38/38/38 36/36/36 37/37/37
f 39/39/39 35/35/35 38/38/38
f 36/36/36 38/38/38 35/35/35
f 43/43/43 40/40/40 44/44/44
f 41/41/41 40/40/40 42/42/42
f 43/43/43 42/42/42 40/40/40
f 45/45/45 41/41/41 42/42/42
