# Rhino

mtllib MC5_5.mtl
o MC5_5
usemtl diffuse_160_255_200_255
v 40 2 32
v 40 4 30
v 42 0 32
v 44 2 28
v 44 0 30
v 42 4 28
v 42 4 32
v 44 2 32
v 44 4 30
v 44 2 32
v 40 2 32
v 40 4 32
v 40 4 30
v 40 4 32
v 44 0 30
v 44 2 28
v 44 4 30
v 44 2 32
v 44 4 28
v 44 0 32
v 42 0 32
v 40 2 32
v 42 4 32
v 44 2 32
v 40 4 32
v 44 0 32
v 44 4 28
v 42 4 28
v 44 2 28
v 42 4 28
v 44 0 32
v 44 0 30
v 42 0 32
v 44 0 30
v 40 4 30
v 42 4 28
v 44 4 30
v 42 4 32
v 40 4 32
v 44 4 28
vt 0.1132378950715065 0.0037574423477053642
vt 0.33100306987762451 0.0037574423477053642
vt 0.0043553034774959087 0.191629558801651
vt 0.33100306987762451 0.37950167059898376
vt 0.1132378950715065 0.37950167059898376
vt 0.43988564610481262 0.191629558801651
vt 0.46810904145240784 0.60248911380767822
vt 0.46810904145240784 0.81878948211669922
vt 0.68440937995910645 0.60248911380767822
vt 0.68440937995910645 0.81878948211669922
vt 0.46664419770240784 0.60248911380767822
vt 0.31412580609321594 0.60248911380767822
vt 0.46664419770240784 0.81878948211669922
vt 0.31412580609321594 0.81878948211669922
vt 0.99546986818313599 0.56719005107879639
vt 0.84220468997955322 0.72117328643798828
vt 0.68893951177597046 0.56719005107879639
vt 0.84220468997955322 0.41320681571960449
vt 0.68893951177597046 0.72117328643798828
vt 0.99546986818313599 0.41320681571960449
vt 0.15633048117160797 0.69577008485794067
vt 0.0030653036665171385 0.54178684949874878
vt 0.15633048117160797 0.38780361413955688
vt 0.30959564447402954 0.54178684949874878
vt 0.0030653036665171385 0.38780361413955688
vt 0.30959564447402954 0.69577008485794067
vt 0.5 0.384723961353302
vt 0.5 0.60102427005767822
vt 0.65398323535919189 0.384723961353302
vt 0.65398323535919189 0.60102427005767822
vt 0.31412580609321594 0.384723961353302
vt 0.31412580609321594 0.60102427005767822
vt 0.46810904145240784 0.384723961353302
vt 0.46810904145240784 0.60102427005767822
vt 0.84220468997955322 0.0030796646606177092
vt 0.99546986818313599 0.15706290304660797
vt 0.84220468997955322 0.31104612350463867
vt 0.68893951177597046 0.15706290304660797
vt 0.68893951177597046 0.0030796646606177092
vt 0.99546986818313599 0.31104612350463867
vn -0.57735025882720947 -0.57735025882720947 -0.57735025882720947
vn -0.57735025882720947 -0.57735025882720947 -0.57735025882720947
vn -0.57735025882720947 -0.57735025882720947 -0.57735025882720947
vn -0.57735025882720947 -0.57735025882720947 -0.57735025882720947
vn -0.57735025882720947 -0.57735025882720947 -0.57735025882720947
vn -0.57735025882720947 -0.57735025882720947 -0.57735025882720947
vn 0.57735025882720947 0.57735025882720947 0.57735025882720947
vn 0.57735025882720947 0.57735025882720947 0.57735025882720947
vn 0.57735025882720947 0.57735025882720947 0.57735025882720947
vn 0.57735025882720947 0.57735025882720947 0.57735025882720947
vn -1 0 0
vn -1 0 0
vn -1 0 0
vn -1 0 0
vn 1 0 0
vn 1 0 0
vn 1 0 0
vn 1 0 0
vn 1 0 0
vn 1 0 0
vn 0 0 1
vn 0 0 1
vn 0 0 1
vn 0 0 1
vn 0 0 1
vn 0 0 1
vn 0 0 -1
vn 0 0 -1
vn 0 0 -1
vn 0 0 -1
vn 0 -1 0
vn 0 -1 0
vn 0 -1 0
vn 0 -1 0
vn 0 1 0
vn 0 1 0
vn 0 1 0
vn 0 1 0
vn 0 1 0
vn 0 1 0
f 3/3/3 6/6/6 4/4/4 5/5/5
f 1/1/1 2/2/2 3/3/3
f 2/2/2 6/6/6 3/3/3
f 8/8/8 9/9/9 7/7/7
f 12/12/12 13/13/13 11/11/11
f 18/18/18 20/20/20 15/15/15
f 17/17/17 18/18/18 15/15/15
f 19/19/19 17/17/17 16/16/16
f 15/15/15 16/16/16 17/17/17
f 22/22/22 23/23/23 25/25/25
f 24/24/24 23/23/23 22/22/22
f 26/26/26 24/24/24 21/21/21
f 22/22/22 21/21/21 24/24/24
f 28/28/28 27/27/27 29/29/29
f 32/32/32 31/31/31 33/33/33
f 38/38/38 35/35/35 39/39/39
f 36/36/36 35/35/35 37/37/37
f 38/38/38 37/37/37 35/35/35
f 40/40/40 36/36/36 37/37/37
