# Rhino

mtllib MC2_3N.mtl
o MC2_3N
usemtl diffuse_80_50_255_255
v 56 0 14
v 56 2 12
v 58 0 12
v 56 2 12
v 56 0 12
v 56 0 14
v 56 2 12
v 56 0 14
v 56 0 12
v 58 0 12
v 56 2 12
v 58 0 12
v 56 0 12
v 58 0 12
v 56 0 14
v 58 0 12
vt 0.47140452265739441 0
vt 0 0
vt 0.47140452265739441 0.46993967890739441
vt 0 0.46993967890739441
vt 0.66666668653488159 0
vt 0.66666668653488159 0.47140452265739441
vt 0.99853515625 0
vt 0.99853515625 0.47140452265739441
vt 0.3333333432674408 0.47140452265739441
vt 0.3333333432674408 0.94134420156478882
vt 0.66520184278488159 0.47140452265739441
vt 0.66520184278488159 0.94134420156478882
vt 0 0.47140452265739441
vt 0 0.94134420156478882
vt 0.3318684995174408 0.47140452265739441
vt 0.3318684995174408 0.94134420156478882
vn 0.57735025882720947 0.57735025882720947 0.57735025882720947
vn 0.57735025882720947 0.57735025882720947 0.57735025882720947
vn 0.57735025882720947 0.57735025882720947 0.57735025882720947
vn 0.57735025882720947 0.57735025882720947 0.57735025882720947
vn -1 0 0
vn -1 0 0
vn -1 0 0
vn -1 0 0
vn 0 0 -1
vn 0 0 -1
vn 0 0 -1
vn 0 0 -1
vn 0 -1 0
vn 0 -1 0
vn 0 -1 0
vn 0 -1 0
f 2/2/2 1/1/1 3/3/3
f 6/6/6 7/7/7 5/5/5
f 10/10/10 9/9/9 11/11/11
f 14/14/14 15/15/15 13/13/13
o MC2_3N
usemtl diffuse_80_50_255_255
v 58 4 16
v 60 2 16
v 60 4 14
v 60 2 16
v 60 4 16
v 60 4 14
v 60 2 16
v 60 4 14
v 60 4 16
v 58 4 16
v 60 2 16
v 58 4 16
v 60 4 16
v 60 4 14
v 58 4 16
v 60 4 14
vt 0.47140452265739441 0
vt 0 0
vt 0.47140452265739441 0.46993967890739441
vt 0 0.46993967890739441
vt 0.66666668653488159 0
vt 0.66666668653488159 0.47140452265739441
vt 0.99853515625 0
vt 0.99853515625 0.47140452265739441
vt 0.3333333432674408 0.47140452265739441
vt 0.3333333432674408 0.94134420156478882
vt 0.66520184278488159 0.47140452265739441
vt 0.66520184278488159 0.94134420156478882
vt 0 0.47140452265739441
vt 0 0.94134420156478882
vt 0.3318684995174408 0.47140452265739441
vt 0.3318684995174408 0.94134420156478882
vn -0.57735025882720947 -0.57735025882720947 -0.57735025882720947
vn -0.57735025882720947 -0.57735025882720947 -0.57735025882720947
vn -0.57735025882720947 -0.57735025882720947 -0.57735025882720947
vn -0.57735025882720947 -0.57735025882720947 -0.57735025882720947
vn 1 0 0
vn 1 0 0
vn 1 0 0
vn 1 0 0
vn 0 0 1
vn 0 0 1
vn 0 0 1
vn 0 0 1
vn 0 1 0
vn 0 1 0
vn 0 1 0
vn 0 1 0
f 18/18/18 17/17/17 19/19/19
f 22/22/22 21/21/21 23/23/23
f 26/26/26 27/27/27 25/25/25
f 30/30/30 31/31/31 29/29/29
