# Rhino

mtllib MC2_1N.mtl
o MC2_1N
usemtl diffuse_0_50_255_255
v 56 0 -2
v 58 0 -4
v 56 2 0
v 58 4 0
v 56 2 -4
v 58 0 -4
v 56 4 -2
v 58 4 0
v 56 0 -2
v 56 2 0
v 56 4 -2
v 56 2 -4
v 56 4 0
v 56 0 -4
v 56 2 0
v 58 4 0
v 56 4 0
v 58 4 0
v 56 0 -4
v 58 0 -4
v 56 2 -4
v 58 0 -4
v 56 0 -4
v 58 0 -4
v 56 0 -2
v 58 0 -4
v 56 4 0
v 58 4 0
v 56 4 -2
v 58 4 0
vt 0.41081029176712036 0.70951324701309204
vt 0.41081029176712036 0.99853515625
vt 0.99031895399093628 0.70951324701309204
vt 0.99031895399093628 0.99853515625
vt 0.41081029176712036 0.41902649402618408
vt 0.41081029176712036 0.70804840326309204
vt 0.99031895399093628 0.41902649402618408
vt 0.99031895399093628 0.70804840326309204
vt 0.41491842269897461 0.20878082513809204
vt 0.6203235387802124 0.0040937419980764389
vt 0.82572871446609497 0.20878082513809204
vt 0.6203235387802124 0.41346791386604309
vt 0.82572871446609497 0.0040937419980764389
vt 0.41491842269897461 0.41346791386604309
vt 0.20540514588356018 0
vt 0.20540514588356018 0.29048675298690796
vt 0.40934544801712036 0
vt 0.40934544801712036 0.29048675298690796
vt 0 0
vt 0 0.29048675298690796
vt 0.20394030213356018 0
vt 0.20394030213356018 0.29048675298690796
vt 0.20540514588356018 0.5
vt 0.20540514588356018 0.79048675298690796
vt 0.40934544801712036 0.5
vt 0.40934544801712036 0.79048675298690796
vt 0 0.5
vt 0 0.79048675298690796
vt 0.20394030213356018 0.5
vt 0.20394030213356018 0.79048675298690796
vn 0.57735025882720947 -0.57735025882720947 0.57735025882720947
vn 0.57735025882720947 -0.57735025882720947 0.57735025882720947
vn 0.57735025882720947 -0.57735025882720947 0.57735025882720947
vn 0.57735025882720947 -0.57735025882720947 0.57735025882720947
vn 0.57735025882720947 0.57735025882720947 -0.57735025882720947
vn 0.57735025882720947 0.57735025882720947 -0.57735025882720947
vn 0.57735025882720947 0.57735025882720947 -0.57735025882720947
vn 0.57735025882720947 0.57735025882720947 -0.57735025882720947
vn -1 0 0
vn -1 0 0
vn -1 0 0
vn -1 0 0
vn -1 0 0
vn -1 0 0
vn 0 0 1
vn 0 0 1
vn 0 0 1
vn 0 0 1
vn 0 0 -1
vn 0 0 -1
vn 0 0 -1
vn 0 0 -1
vn 0 -1 0
vn 0 -1 0
vn 0 -1 0
vn 0 -1 0
vn 0 1 0
vn 0 1 0
vn 0 1 0
vn 0 1 0
f 2/2/2 4/4/4 3/3/3 1/1/1
f 6/6/6 5/5/5 7/7/7 8/8/8
f 10/10/10 13/13/13 11/11/11
f 12/12/12 10/10/10 11/11/11
f 14/14/14 9/9/9 12/12/12
f 10/10/10 12/12/12 9/9/9
f 16/16/16 17/17/17 15/15/15
f 20/20/20 19/19/19 21/21/21
f 24/24/24 25/25/25 23/23/23
f 28/28/28 29/29/29 27/27/27
