# Rhino

mtllib MC3_4N.mtl
o MC3_4N
usemtl diffuse_120_100_255_255
v 64 0 22
v 66 0 24
v 64 2 20
v 68 2 24
v 64 2 20
v 68 2 24
v 68 2 20
v 68 2 24
v 64 0 20
v 64 0 22
v 64 2 20
v 64 0 22
v 68 0 20
v 68 0 24
v 68 2 20
v 68 2 24
v 66 0 24
v 68 0 24
v 68 2 24
v 68 0 24
v 64 0 20
v 68 0 20
v 64 2 20
v 68 2 20
v 66 0 24
v 64 0 22
v 64 0 20
v 68 0 20
v 68 0 24
vt 0.49853515625 0
vt 0 0
vt 0.49853515625 0.25
vt 0 0.25
vt 0.99853515625 0.6035534143447876
vt 0.5 0.6035534143447876
vt 0.99853515625 0.95564192533493042
vt 0.5 0.95564192533493042
vt 0.75 0.35355338454246521
vt 0.75 0.6020885705947876
vt 0.9267767071723938 0.35355338454246521
vt 0.9267767071723938 0.6020885705947876
vt 0.8535534143447876 0.1767766922712326
vt 0.5 0.1767766922712326
vt 0.8535534143447876 0.35208854079246521
vt 0.5 0.35208854079246521
vt 0.6767767071723938 0.35355338454246521
vt 0.5 0.35355338454246521
vt 0.6767767071723938 0.6020885705947876
vt 0.5 0.6020885705947876
vt 0.8535534143447876 0
vt 0.5 0
vt 0.8535534143447876 0.1753118485212326
vt 0.5 0.1753118485212326
vt 0.18031223118305206 0.74894464015960693
vt 0.0035355340223759413 0.57216799259185791
vt 0.0035355340223759413 0.39539125561714172
vt 0.35708892345428467 0.39539125561714172
vt 0.35708892345428467 0.74894464015960693
vn -0.57735025882720947 0.57735025882720947 0.57735025882720947
vn -0.57735025882720947 0.57735025882720947 0.57735025882720947
vn -0.57735025882720947 0.57735025882720947 0.57735025882720947
vn -0.57735025882720947 0.57735025882720947 0.57735025882720947
vn 0 1 0
vn 0 1 0
vn 0 1 0
vn 0 1 0
vn -1 0 0
vn -1 0 0
vn -1 0 0
vn -1 0 0
vn 1 0 0
vn 1 0 0
vn 1 0 0
vn 1 0 0
vn 0 0 1
vn 0 0 1
vn 0 0 1
vn 0 0 1
vn 0 0 -1
vn 0 0 -1
vn 0 0 -1
vn 0 0 -1
vn 0 -1 0
vn 0 -1 0
vn 0 -1 0
vn 0 -1 0
vn 0 -1 0
f 2/2/2 4/4/4 3/3/3 1/1/1
f 6/6/6 7/7/7 5/5/5
f 10/10/10 11/11/11 9/9/9
f 14/14/14 13/13/13 15/15/15 16/16/16
f 18/18/18 19/19/19 17/17/17
f 22/22/22 21/21/21 23/23/23 24/24/24
f 28/28/28 26/26/26 27/27/27
f 29/29/29 25/25/25 28/28/28
f 26/26/26 28/28/28 25/25/25
