# Rhino

mtllib MC3_1N.mtl
o MC3_1N
usemtl diffuse_0_100_255_255
v 64 0 -2
v 66 2 -2
v 64 2 0
v 66 2 -2
v 64 2 0
v 66 2 -2
v 68 2 0
v 66 2 -2
v 68 2 0
v 66 2 -2
v 68 4 -2
v 66 4 -4
v 66 4 -4
v 66 2 -2
v 68 2 -4
v 68 0 -2
v 64 0 -2
v 66 2 -2
v 68 0 -2
v 66 2 -2
v 64 0 -2
v 64 0 0
v 64 2 0
v 64 0 0
v 64 0 0
v 68 0 0
v 64 2 0
v 68 2 0
v 64 0 -2
v 64 0 0
v 68 0 -2
v 68 0 0
v 68 2 0
v 68 4 -2
v 68 2 -4
v 68 0 -2
v 68 4 -4
v 68 0 0
v 68 2 0
v 68 0 -2
v 68 4 -4
v 68 2 -4
v 66 4 -4
v 68 2 -4
v 68 4 -4
v 68 4 -2
v 66 4 -4
v 68 4 -2
vt 0.56670188903808594 0.39838507771492004
vt 0.3333333432674408 0.39838507771492004
vt 0.56670188903808594 0.63028877973556519
vt 0.3333333432674408 0.63028877973556519
vt 0.66336631774902344 0
vt 0.66336631774902344 0.23336857557296753
vt 0.99339932203292847 0
vt 0.99339932203292847 0.23336857557296753
vt 0.24504624307155609 0.16501650214195251
vt 0.24504624307155609 0.39692023396492004
vt 0.47841480374336243 0.16501650214195251
vt 0.47841480374336243 0.39692023396492004
vt 0 0.16501650214195251
vt 0 0.39692023396492004
vt 0.23336857557296753 0.16501650214195251
vt 0.23336857557296753 0.39692023396492004
vt 0.3333333432674408 0.63175362348556519
vt 0.3333333432674408 0.86365735530853271
vt 0.66190147399902344 0.63175362348556519
vt 0.66190147399902344 0.86365735530853271
vt 0.33168315887451172 0.39838507771492004
vt 0.1666666716337204 0.39838507771492004
vt 0.33168315887451172 0.63028877973556519
vt 0.1666666716337204 0.63028877973556519
vt 0.49009248614311218 0
vt 0.49009248614311218 0.33003300428390503
vt 0.6551089882850647 0
vt 0.6551089882850647 0.33003300428390503
vt 0 0
vt 0 0.16355165839195251
vt 0.33003300428390503 0
vt 0.33003300428390503 0.16355165839195251
vt 0.83095073699951172 0.35749602317810059
vt 0.99524921178817749 0.52251255512237549
vt 0.83095073699951172 0.68752902746200562
vt 0.66665232181549072 0.52251255512237549
vt 0.99524921178817749 0.68752902746200562
vt 0.0032716076821088791 0.79677015542984009
vt 0.0032716076821088791 0.63175362348556519
vt 0.16685198247432709 0.79677015542984009
vt 0 0.39838507771492004
vt 0 0.63028877973556519
vt 0.16501650214195251 0.39838507771492004
vt 0.16501650214195251 0.63028877973556519
vt 0.16831682622432709 0.63175362348556519
vt 0.16831682622432709 0.86365735530853271
vt 0.3318684995174408 0.63175362348556519
vt 0.3318684995174408 0.86365735530853271
vn -0.57735025882720947 0.57735025882720947 -0.57735025882720947
vn -0.57735025882720947 0.57735025882720947 -0.57735025882720947
vn -0.57735025882720947 0.57735025882720947 -0.57735025882720947
vn -0.57735025882720947 0.57735025882720947 -0.57735025882720947
vn 0 1 0
vn 0 1 0
vn 0 1 0
vn 0 1 0
vn -0.57735025882720947 0.57735025882720947 0.57735025882720947
vn -0.57735025882720947 0.57735025882720947 0.57735025882720947
vn -0.57735025882720947 0.57735025882720947 0.57735025882720947
vn -0.57735025882720947 0.57735025882720947 0.57735025882720947
vn -0.57735025882720947 -0.57735025882720947 -0.57735025882720947
vn -0.57735025882720947 -0.57735025882720947 -0.57735025882720947
vn -0.57735025882720947 -0.57735025882720947 -0.57735025882720947
vn -0.57735025882720947 -0.57735025882720947 -0.57735025882720947
vn 0 0 -1
vn 0 0 -1
vn 0 0 -1
vn 0 0 -1
vn -1 0 0
vn -1 0 0
vn -1 0 0
vn -1 0 0
vn 0 0 1
vn 0 0 1
vn 0 0 1
vn 0 0 1
vn 0 -1 0
vn 0 -1 0
vn 0 -1 0
vn 0 -1 0
vn 1 0 0
vn 1 0 0
vn 1 0 0
vn 1 0 0
vn 1 0 0
vn 1 0 0
vn 1 0 0
vn 1 0 0
vn 0 0 -1
vn 0 0 -1
vn 0 0 -1
vn 0 0 -1
vn 0 1 0
vn 0 1 0
vn 0 1 0
vn 0 1 0
f 2/2/2 1/1/1 3/3/3
f 6/6/6 5/5/5 7/7/7
f 10/10/10 9/9/9 11/11/11 12/12/12
f 14/14/14 13/13/13 15/15/15 16/16/16
f 18/18/18 19/19/19 17/17/17
f 22/22/22 23/23/23 21/21/21
f 26/26/26 28/28/28 27/27/27 25/25/25
f 30/30/30 29/29/29 31/31/31 32/32/32
f 35/35/35 34/34/34 33/33/33
f 36/36/36 35/35/35 33/33/33
f 37/37/37 34/34/34 35/35/35
f 38/38/38 40/40/40 39/39/39
f 42/42/42 43/43/43 41/41/41
f 46/46/46 45/45/45 47/47/47
