# Rhino

mtllib MC4_1.mtl
o MC4_1
usemtl diffuse_0_255_150_255
v 32 2 0
v 34 4 0
v 32 4 -2
v 34 4 0
v 34 0 0
v 36 2 0
v 36 0 -2
v 36 2 0
v 32 2 -4
v 32 0 -2
v 34 0 -4
v 32 0 -2
v 34 4 -4
v 36 2 -4
v 36 4 -2
v 36 2 -4
v 32 4 -2
v 32 2 0
v 32 0 -2
v 32 2 -4
v 32 0 0
v 32 4 -4
v 36 2 0
v 36 0 -2
v 36 2 -4
v 36 4 -2
v 36 0 -4
v 36 4 0
v 32 2 0
v 34 4 0
v 36 2 0
v 34 0 0
v 32 0 0
v 36 4 0
v 34 0 -4
v 32 2 -4
v 34 4 -4
v 36 2 -4
v 32 4 -4
v 36 0 -4
v 36 0 -2
v 34 0 0
v 32 0 -2
v 34 0 -4
v 32 0 0
v 36 0 -4
v 34 4 0
v 32 4 -2
v 34 4 -4
v 36 4 -2
v 32 4 -4
v 36 4 0
vt 0.29529151320457458 0
vt 0.29529151320457458 0.20324362814426422
vt 0.5 0
vt 0.5 0.20324362814426422
vt 0 0
vt 0 0.20324362814426422
vt 0.20470847189426422 0
vt 0.20470847189426422 0.20324362814426422
vt 0.29529151320457458 0.20470847189426422
vt 0.29529151320457458 0.40795210003852844
vt 0.5 0.20470847189426422
vt 0.5 0.40795210003852844
vt 0 0.20470847189426422
vt 0 0.40795210003852844
vt 0.20470847189426422 0.20470847189426422
vt 0.20470847189426422 0.40795210003852844
vt 0.5934637188911438 0.64764577150344849
vt 0.73749637603759766 0.50289499759674072
vt 0.88152909278869629 0.64764577150344849
vt 0.73749637603759766 0.79239648580551147
vt 0.88152909278869629 0.50289499759674072
vt 0.5934637188911438 0.79239648580551147
vt 0.73749637603759766 0.0028950150590389967
vt 0.88152909278869629 0.14764575660228729
vt 0.73749637603759766 0.29239651560783386
vt 0.5934637188911438 0.14764575660228729
vt 0.88152909278869629 0.29239651560783386
vt 0.5934637188911438 0.0028950150590389967
vt 0.14691333472728729 0.70758914947509766
vt 0.29094603657722473 0.85162180662155151
vt 0.14691333472728729 0.99565452337265015
vt 0.0028806624468415976 0.85162180662155151
vt 0.0028806624468415976 0.70758914947509766
vt 0.29094603657722473 0.99565452337265015
vt 0.0028806624468415976 0.55633026361465454
vt 0.14691333472728729 0.41229760646820068
vt 0.29094603657722473 0.55633026361465454
vt 0.14691333472728729 0.70036298036575317
vt 0.29094603657722473 0.41229760646820068
vt 0.0028806624468415976 0.70036298036575317
vt 0.44220486283302307 0.99565452337265015
vt 0.29817217588424683 0.85162180662155151
vt 0.44220486283302307 0.70758914947509766
vt 0.58623754978179932 0.85162180662155151
vt 0.29817217588424683 0.70758914947509766
vt 0.58623754978179932 0.99565452337265015
vt 0.29817217588424683 0.55633026361465454
vt 0.44220486283302307 0.41229760646820068
vt 0.58623754978179932 0.55633026361465454
vt 0.44220486283302307 0.70036298036575317
vt 0.58623754978179932 0.41229760646820068
vt 0.29817217588424683 0.70036298036575317
vn -0.57735025882720947 0.57735025882720947 0.57735025882720947
vn -0.57735025882720947 0.57735025882720947 0.57735025882720947
vn -0.57735025882720947 0.57735025882720947 0.57735025882720947
vn -0.57735025882720947 0.57735025882720947 0.57735025882720947
vn 0.57735025882720947 -0.57735025882720947 0.57735025882720947
vn 0.57735025882720947 -0.57735025882720947 0.57735025882720947
vn 0.57735025882720947 -0.57735025882720947 0.57735025882720947
vn 0.57735025882720947 -0.57735025882720947 0.57735025882720947
vn -0.57735025882720947 -0.57735025882720947 -0.57735025882720947
vn -0.57735025882720947 -0.57735025882720947 -0.57735025882720947
vn -0.57735025882720947 -0.57735025882720947 -0.57735025882720947
vn -0.57735025882720947 -0.57735025882720947 -0.57735025882720947
vn 0.57735025882720947 0.57735025882720947 -0.57735025882720947
vn 0.57735025882720947 0.57735025882720947 -0.57735025882720947
vn 0.57735025882720947 0.57735025882720947 -0.57735025882720947
vn 0.57735025882720947 0.57735025882720947 -0.57735025882720947
vn -1 0 0
vn -1 0 0
vn -1 0 0
vn -1 0 0
vn -1 0 0
vn -1 0 0
vn 1 0 0
vn 1 0 0
vn 1 0 0
vn 1 0 0
vn 1 0 0
vn 1 0 0
vn 0 0 1
vn 0 0 1
vn 0 0 1
vn 0 0 1
vn 0 0 1
vn 0 0 1
vn 0 0 -1
vn 0 0 -1
vn 0 0 -1
vn 0 0 -1
vn 0 0 -1
vn 0 0 -1
vn 0 -1 0
vn 0 -1 0
vn 0 -1 0
vn 0 -1 0
vn 0 -1 0
vn 0 -1 0
vn 0 1 0
vn 0 1 0
vn 0 1 0
vn 0 1 0
vn 0 1 0
vn 0 1 0
f 2/2/2 3/3/3 1/1/1
f 6/6/6 5/5/5 7/7/7
f 10/10/10 9/9/9 11/11/11
f 14/14/14 13/13/13 15/15/15
f 18/18/18 19/19/19 21/21/21
f 20/20/20 19/19/19 18/18/18
f 22/22/22 20/20/20 17/17/17
f 18/18/18 17/17/17 20/20/20
f 26/26/26 28/28/28 23/23/23
f 24/24/24 25/25/25 23/23/23
f 26/26/26 23/23/23 25/25/25
f 27/27/27 25/25/25 24/24/24
f 32/32/32 29/29/29 33/33/33
f 30/30/30 29/29/29 31/31/31
f 32/32/32 31/31/31 29/29/29
f 34/34/34 30/30/30 31/31/31
f 36/36/36 39/39/39 37/37/37
f 38/38/38 36/36/36 37/37/37
f 40/40/40 35/35/35 38/38/38
f 36/36/36 38/38/38 35/35/35
f 42/42/42 45/45/45 43/43/43
f 44/44/44 41/41/41 43/43/43
f 42/42/42 43/43/43 41/41/41
f 46/46/46 41/41/41 44/44/44
f 48/48/48 49/49/49 51/51/51
f 50/50/50 49/49/49 48/48/48
f 52/52/52 50/50/50 47/47/47
f 48/48/48 47/47/47 50/50/50
